<svg width="52" height="52" viewBox="0 0 52 52" fill="none" xmlns="http://www.w3.org/2000/svg">
<path d="M36.8333 4.33333H15.1666C9.18356 4.33333 4.33331 9.18358 4.33331 15.1667V36.8333C4.33331 42.8164 9.18356 47.6667 15.1666 47.6667H36.8333C42.8164 47.6667 47.6666 42.8164 47.6666 36.8333V15.1667C47.6666 9.18358 42.8164 4.33333 36.8333 4.33333Z" stroke="black" stroke-width="4" stroke-linecap="round" stroke-linejoin="round"/>
<path d="M34.6667 24.635C34.9341 26.4382 34.6261 28.2798 33.7865 29.8979C32.9469 31.5159 31.6185 32.8281 29.9902 33.6476C28.3619 34.4672 26.5166 34.7525 24.7169 34.4628C22.9171 34.1732 21.2545 33.3235 19.9655 32.0345C18.6765 30.7455 17.8267 29.0829 17.5371 27.2831C17.2475 25.4834 17.5328 23.6381 18.3524 22.0098C19.1719 20.3815 20.4841 19.0531 22.1021 18.2135C23.7202 17.3739 25.5618 17.0659 27.365 17.3333C29.2043 17.6061 30.9072 18.4632 32.222 19.778C33.5368 21.0928 34.3939 22.7957 34.6667 24.635Z" stroke="black" stroke-width="4" stroke-linecap="round" stroke-linejoin="round"/>
<path d="M37.9167 14.0833H37.9384" stroke="black" stroke-width="4" stroke-linecap="round" stroke-linejoin="round"/>
</svg>
