<svg width="52" height="52" viewBox="0 0 52 52" fill="none" xmlns="http://www.w3.org/2000/svg">
<path d="M49.8334 6.5C47.7585 7.96353 45.4613 9.0829 43.03 9.815C41.7251 8.3146 39.9909 7.25116 38.0619 6.7685C36.1329 6.28585 34.1023 6.40726 32.2445 7.11631C30.3868 7.82537 28.7916 9.08787 27.6748 10.7331C26.558 12.3782 25.9734 14.3267 26 16.315V18.4817C22.1924 18.5804 18.4194 17.7359 15.0172 16.0235C11.615 14.311 8.68904 11.7837 6.50002 8.66666C6.50002 8.66666 -2.16665 28.1667 17.3334 36.8333C12.8712 39.8623 7.55553 41.381 2.16669 41.1667C21.6667 52 45.5 41.1667 45.5 16.25C45.498 15.6465 45.44 15.0445 45.3267 14.4517C47.538 12.2709 49.0985 9.51754 49.8334 6.5Z" fill="black"/>
</svg>
