<svg width="52" height="52" viewBox="0 0 52 52" fill="none" xmlns="http://www.w3.org/2000/svg">
<path d="M48.8366 13.91C48.5793 12.8817 48.0551 11.9396 47.3171 11.1787C46.579 10.4178 45.6533 9.86522 44.6333 9.57666C40.9066 8.66666 26 8.66666 26 8.66666C26 8.66666 11.0933 8.66666 7.36664 9.66332C6.34668 9.95189 5.42093 10.5045 4.68289 11.2654C3.94486 12.0262 3.42069 12.9684 3.16331 13.9967C2.48128 17.7787 2.14766 21.6153 2.16664 25.4583C2.14233 29.3303 2.47597 33.1961 3.16331 37.0067C3.44706 38.003 3.98297 38.9093 4.71929 39.638C5.4556 40.3668 6.36742 40.8933 7.36664 41.1667C11.0933 42.1633 26 42.1633 26 42.1633C26 42.1633 40.9066 42.1633 44.6333 41.1667C45.6533 40.8781 46.579 40.3255 47.3171 39.5646C48.0551 38.8038 48.5793 37.8616 48.8366 36.8333C49.5134 33.0798 49.847 29.2724 49.8333 25.4583C49.8576 21.5864 49.524 17.7205 48.8366 13.91Z" fill="black"/>
<path d="M21.125 32.5433L33.5833 25.4583L21.125 18.3733V32.5433Z" fill="white"/>
</svg>
