<svg width="40" height="52" viewBox="0 0 40 52" fill="none" xmlns="http://www.w3.org/2000/svg">
<path d="M30 17.3333C32.7614 17.3333 35 14.4232 35 10.8333C35 7.24349 32.7614 4.33334 30 4.33334C27.2386 4.33334 25 7.24349 25 10.8333C25 14.4232 27.2386 17.3333 30 17.3333Z" stroke="black" stroke-width="2" stroke-linecap="round" stroke-linejoin="round"/>
<path d="M10 32.5C12.7614 32.5 15 29.5899 15 26C15 22.4101 12.7614 19.5 10 19.5C7.23858 19.5 5 22.4101 5 26C5 29.5899 7.23858 32.5 10 32.5Z" stroke="black" stroke-width="2" stroke-linecap="round" stroke-linejoin="round"/>
<path d="M30 47.6667C32.7614 47.6667 35 44.7565 35 41.1667C35 37.5768 32.7614 34.6667 30 34.6667C27.2386 34.6667 25 37.5768 25 41.1667C25 44.7565 27.2386 47.6667 30 47.6667Z" stroke="black" stroke-width="2" stroke-linecap="round" stroke-linejoin="round"/>
<path d="M14.3167 29.2717L25.7 37.895" stroke="black" stroke-width="2" stroke-linecap="round" stroke-linejoin="round"/>
<path d="M25.6833 14.105L14.3167 22.7283" stroke="black" stroke-width="2" stroke-linecap="round" stroke-linejoin="round"/>
</svg>
